<svg width="15" height="14" viewBox="0 0 15 14" fill="none" xmlns="http://www.w3.org/2000/svg">
<path d="M6.91669 4.08335H8.08335V5.25002H6.91669V4.08335ZM6.91669 6.41669H8.08335V9.91669H6.91669V6.41669ZM7.50002 1.16669C4.28002 1.16669 1.66669 3.78002 1.66669 7.00002C1.66669 10.22 4.28002 12.8334 7.50002 12.8334C10.72 12.8334 13.3334 10.22 13.3334 7.00002C13.3334 3.78002 10.72 1.16669 7.50002 1.16669ZM7.50002 11.6667C4.92752 11.6667 2.83335 9.57252 2.83335 7.00002C2.83335 4.42752 4.92752 2.33335 7.50002 2.33335C10.0725 2.33335 12.1667 4.42752 12.1667 7.00002C12.1667 9.57252 10.0725 11.6667 7.50002 11.6667Z" fill="#00AFFF"/>
</svg>
